<svg width="152" height="45" viewBox="0 0 152 45" fill="none" xmlns="http://www.w3.org/2000/svg">
<path d="M98.9863 23.8187L89.7887 8.60156L84.094 9.73436V35.3442H90.2475V19.3122L96.6768 30.6525L101.299 30.6494L107.725 19.3122V35.3442H113.879V9.73436L108.184 8.60465L98.9863 23.8187Z" fill="#8C82F5"/>
<path d="M125.339 8.78979H119.186V35.3441H125.339V8.78979Z" fill="#8C82F5"/>
<path d="M151.5 8.78979H142.854H136.701H128.055V14H136.701V35.3441H142.854V14H151.5V8.78979Z" fill="#8C82F5"/>
<path d="M74.0501 8.78979H63.0948C60.0165 8.78979 57.5117 11.1696 57.5117 14.0926V15.531H63.4327L63.6652 14H73.4766V19.2411H62.1772V24.4483H73.4766V30.137H63.6652L63.4327 28.606H57.5117V30.0444C57.5117 32.9674 60.0165 35.3472 63.0948 35.3472H74.0501C77.1284 35.3472 79.6332 32.9674 79.6332 30.0444V14.0926C79.6301 11.1696 77.1253 8.78979 74.0501 8.78979Z" fill="#8C82F5"/>
<path d="M0.5 0.0668945V44.0669H44.6902V0.0668945H0.5ZM15.1257 8.31747H29.4104L31.413 13.0184L21.242 23.4976L17.2368 19.6454L22.8477 13.8642H15.1257V8.31747ZM29.2337 32.8717C27.3737 34.7885 24.8751 35.8719 22.1999 35.9182C22.141 35.9182 22.079 35.9213 22.0201 35.9213C19.4099 35.9213 16.9454 34.9304 15.0637 33.1217L18.9325 29.1307C20.6995 30.8283 23.5235 30.7789 25.2254 29.0226C26.4933 27.7139 26.8343 25.8002 26.0934 24.1457L31.1805 21.8863C32.8514 25.6181 32.0888 29.9301 29.2337 32.8717Z" fill="#8C82F5"/>
</svg>
